<svg xmlns="http://www.w3.org/2000/svg" width="916" height="916"><path d="M478.8 360.3c-2.698 2.098-4.8 7.9-9.5 25.7-1.6 6.398-6.1 20.602-7.3 23.5-.5 1.102-2.3 6.898-4 13-6 21.102-10.2 35-11 37-.5 1.102-1.898 5.3-3.2 9.3-2.8 9.098-2.5 9.7 5.802 13.5 3.398 1.5 8.796 1.2 10.199-.698 1.097-1.403 4.5-11.801 6.699-20.602.898-3.602 2-7 2.5-7.5.7-.898 5.8-18.3 10.102-34.398 1.097-4.102 2.699-9 3.5-10.903 3.199-7.699 11.5-38.8 11.199-42.199-.301-3.2-.7-3.602-5-5.102-2.602-.796-5.102-1.898-5.5-2.199-1-1.097-1.602-.898-4.5 1.602zm0 0M508.3 373.898c-4.5.903-10.3 6.301-10.3 9.602 0 1.8 2.898 6 10 14.5 5.5 6.602 10 12.2 10 12.5 0 .2 2 2.5 4.5 5.102 2.5 2.5 4.5 4.898 4.5 5.398 0 .398-1.5 2.5-3.398 4.602-1.903 2.199-8.403 9.898-14.5 17.296-13.301 15.903-13.5 16.801-6 22.903C506 468.1 508.8 470 509.398 470c1.903-.102 4.102-2.3 12.704-12.602 4.597-5.5 12.898-15.296 18.296-21.796 11.903-14.102 12.102-14.903 5-23.301-23.898-28-33.597-39.301-33.699-39.2-.097.098-1.597.399-3.398.797zm0 0M422.3 376.2c-1.3 1.3-2.3 2.8-2.3 3.198 0 .403-1.3 1.903-3 3.301-1.602 1.301-3 2.903-3 3.5 0 .5-6.3 8.403-14 17.403-7.7 9.097-14 16.898-14 17.398s3 4.398 6.602 8.7c3.597 4.3 9.898 11.8 13.898 16.8 14.8 18.102 19.8 23.5 21.898 23.5.903 0 2.801-1.102 4.204-2.5C434 466.102 435.5 465 436 465c1.602 0 3.898-4.398 3.5-6.5-.2-1.102-.398-2.3-.398-2.7-.102-.402-1.204-2-2.5-3.5-12.102-13.698-25.704-30.698-25.301-31.6.3-.7 5.699-7.4 12.097-14.9C429.801 398.2 435 391.603 435 391c0-.5.5-1 1-1 .602 0 1.8-1.602 2.7-3.5 1.402-3 1.5-3.8.3-6-.7-1.398-1.8-2.5-2.3-2.5-.5 0-1.5-.7-2.2-1.602-.602-.898-3.102-1.796-5.602-2.097-3.699-.403-4.699-.102-6.597 1.898zm0 0M324.898 536.5c-.296.2-1.597.602-3 .898-1.296.204-2.296.903-2.097 1.602.097.602-.301.8-.903.398-.597-.296-2.097.5-3.398 2-1.2 1.403-2.398 2.301-2.7 2-1.1-1-5.902 10.301-6.402 15.301-.796 6.5 1.5 13.5 6.102 18.7 1.898 2.203 3.5 3.601 3.5 3.203 0-.403.7 0 1.5.796 5.2 5.204 23 3.903 29.7-2.097 2.198-2 2.402-6.301.3-6.301-.8 0-1.5.7-1.5 1.602 0 1-.5 1.398-1.602 1-.796-.301-1.296-.204-1 .296 1 1.5-5.296 3.102-12.199 3.102-6.097 0-6.597-.2-9.8-3.5-3.797-4.102-5.7-9.398-5.2-14.5l.301-3.5 16.5-.5c18.3-.602 17.898-.398 16.602-7.602-1.5-7.5-9.801-13.398-18.903-13.398-2.898 0-5.597.2-5.8.5zm14 7.602c1.704 1.296 3.102 3.097 3.102 4.097 0 1.602-1.102 1.801-11.5 1.801H319l1.2-2.602c2.698-6 12.698-7.699 18.698-3.296zm0 0M367.5 537.8c-1.3 1.098-2 3.098-2.102 5.7-.199 5.7-1.199 18.898-2 26.7-.398 3.6-.296 7.5.102 8.5.5 1 .7 2.3.602 3-.301 1.902 9 3.6 10.5 1.902 1.398-1.602 1.597-32.801.296-33.704-1.898-1.097 2.602-3 10.403-4.296l7.199-1.204.3-4.296.302-4.403-4.704.602c-2.5.199-4.898.898-5.296 1.398-.903 1.403-7.403 4.2-8.301 3.7-.403-.297-.801-1.2-.801-1.899 0-.8-.898-1.898-1.898-2.5-2.403-1.2-2.204-1.3-4.602.8zm0 0M419 536.7c-2.898 1.1-11.5 7.1-14.398 10.1-1.801 1.9-2.602 3.7-2.204 4.7.301.898.204 1.3-.398 1-.602-.398-1 .898-1 2.898s-.398 3.602-1 3.602c-.5 0-1 .898-1 2 0 1.102.3 2 .8 2 .4 0 1.302 2.3 2 5.2 2.098 9 11.4 15.8 22 16.1 5.598.2 15.5-2.1 14.7-3.402-.3-.296.602-.5 1.898-.398 2.403.3 7-3.398 7.204-5.8.199-3.4 1.796-7.9 2.898-8.302.898-.398.8-2.398-.2-8.699-.8-4.5-1.5-9.199-1.6-10.3-.098-1.399-.7-2-1.598-1.598-1 .398-1.301 0-.903-1.602.403-1.199.301-2-.097-1.8-.301.203-1.5-.2-2.602-1-1-.797-1.5-1.399-.898-1.399.5-.102-1.602-.898-4.602-2-5.2-1.8-15.602-2.5-19-1.3zm16 7.8c1.7.898 3 1.8 3 2.102 0 .296-.5.199-1.2-.204-.698-.398-.8-.296-.402.403.403.597 1.403.8 2.301.5 1.301-.5 1.5-.2 1.102 1.5-.403 1.398-.2 2 .5 1.5.699-.403.8 0 .398 1.097-.398.903-.3 1.5.2 1.204.5-.301 1.101.296 1.402 1.398.3 1.102.097 2.3-.403 2.602-.5.296-.898 1.796-.898 3.398s.398 3.102.898 3.398c.5.301.704 1.5.403 2.602-.301 1.102-.903 1.7-1.403 1.398-.5-.296-.597.301-.199 1.204.403 1 .2 1.5-.398 1.097-.5-.3-.903.403-.903 1.602.102 1.5-.5 2.199-1.597 2.097-1-.097-1.602.301-1.5 1 .097.602-.602 1-1.5 1-1-.097-1.602.204-1.301.602.7 1.2-2.102 2-7 2-5.2 0-7.7-.8-6.8-2.3.402-.598.1-.7-.598-.2-1.602.898-6.301-3.398-5.602-5.3.2-.7.102-1.098-.398-.802-1.403.903-3.204-8-2.5-12.398.398-2.2 1-3.7 1.5-3.398.5.296.597-.102.296-.903-.699-1.898 4.5-8 6.301-7.3.801.3 1.102.203.801-.297-1.398-2.301 11.398-2.704 15.5-.602zm12 30.8c0 .2-1.2 1.4-2.7 2.802l-2.8 2.398 2.398-2.8c2.301-2.5 3.102-3.2 3.102-2.4zm0 0"/><path d="M428.8 576.7c.7.3 1.598.198 1.9-.098.402-.301-.2-.602-1.302-.5-1.097 0-1.398.296-.597.597zm0 0M517.3 537.398c-1.3.602-2.3 1.403-2.3 1.903 0 .398-.398.597-.8.3-.5-.3-.9.098-.9.899 0 .8.4 1.2.802 1 .398-.3 1 .2 1.296 1.102.5 1.199 1.301 1.398 3.403.898 12.5-3.398 21.199.8 21.199 10.3v4.5l-6.7-.6c-4.6-.4-6.198-.2-4.8.402 1.5.699 1.102.796-1.8.5-2-.301-3.5-.102-3.2.398.602 1-4.3 2.3-5.7 1.398-.698-.5-.8-.199-.3.602.602 1 .398 1.2-.898.7-1-.4-1.5-.302-1.102.3.3.602.102 1-.398 1-.602 0-1.102.7-1.102 1.5s-.398 1.5-.898 1.5-1.5 1.602-2.102 3.5c-1.2 3.7-.5 9.5 1.102 9.5.597 0 .699.5.398 1-.398.602-.3 1 .2.898 1.6-.398 4.198 1.301 3.698 2.5-.398.903 1.301 1.204 6.801.903 8.7-.301 11.801-.7 11.2-1.2-.7-.703 3-3 5-3.101 1.101 0 1.601.5 1.3 1.398-.398 1.102.602 1.5 4.5 1.801 2.7.102 5.2.102 5.403-.097.199-.204.296-7.204.199-15.5l-.2-15.102-1.203 30v-17.2c.102-9.402-.199-16.6-.597-16-.7 1.098-1.2-.698-1.102-4 .102-.698-.3-1-.8-.698-.5.296-1 0-1-.5-.098-.602-.2-1.704-.297-2.301 0-.7-.801-1.301-1.602-1.403-2.398-.097-8-2.5-8-3.398 0-1.2-16-.8-18.7.398zm22.7 31c0 7.102-1.102 8.5-8.102 10.301-8 2.102-14.097-1.8-12.5-8.097.704-3 6.204-6.903 8.903-6.204.898.204 1.699 0 1.699-.597 0-.602 1.3-.801 2.898-.602 1.704.2 2.801.102 2.5-.398-.296-.403.602-.801 2-.801 2.5 0 2.602.2 2.602 6.398zm0 0"/><path d="M524.8 577.7c.7.3 1.598.198 1.9-.098.402-.301-.2-.602-1.302-.5-1.097 0-1.398.296-.597.597zm0 0M529.8 577.7c.7.3 1.598.198 1.9-.098.402-.301-.2-.602-1.302-.5-1.097 0-1.398.296-.597.597zm0 0M561.2 537.7c-1.802.902-2.9 1.902-2.302 2.198 1.5.903 3.204 6.102 2.5 7.301-.398.602-.296.801.301.5.602-.398 1.801 1.301 2.801 3.602 1.102 2.3 3 6.199 4.398 8.699 4.102 7.2 9.102 19.2 8.403 20.3-.301.598-.102.7.5.302 1.097-.602 3.8 3.097 3.398 4.597-.8 2.801 5.5-3.3 10.5-10.199 6.2-8.5 6.903-8.898 10.102-5.398 1.5 1.5 2.597 3.097 2.597 3.398-.097.3.704 2.2 1.704 4.3 1.097 2.098 1.699 4.2 1.398 4.802-.398.5-.3.898.2.796.402-.097 1.6.102 2.6.602 1.4.602 2.5.102 4.302-2 1.296-1.602 2.398-3.2 2.398-3.602 0-1.597 7.7-13.898 8.3-13.199.4.301.802 0 .802-.8.296-3.5.5-4 1.699-4.797.8-.5 1.3-1.102 1.199-1.5-.398-1.403 4.3-11.5 5.102-11 .5.296.597-.204.296-1-.296-.903-.097-1.602.5-1.602.602 0 .801-.7.5-1.5-.398-.8-.097-1.5.5-1.5.602 0 1.102-.898 1.102-2 0-1.602-.7-2-3.3-2-3.098 0-3.598.5-5.802 5.2-1.296 2.902-2.699 5.5-3 5.8-.296.3-1.199 2.2-2 4.2-.699 2.1-1.699 3.8-2.296 3.8-.5 0-.704.3-.301.602.3.398-.102 1.296-.903 2.097-.796.801-1.199 1.903-.898 2.403.398.5.102.898-.5.898s-.8.5-.5 1c.398.602-.3 2.602-1.5 4.5-2.8 4.5-5.7 4.3-7-.602-.602-2-2.8-7.5-5-12.296-2.2-4.704-4-9.102-4-9.602s-.7-1.8-1.5-2.7c-.8-1-2.102-2.6-2.8-3.698-1.302-1.704-1.5-1.704-4.4-.301-1.698.898-3.3 2.3-3.6 3.199-.802 1.898.198 4.7 1.402 4 1.097-.8 3.199 3.398 2.5 5.102-.301.796-.204 1.296.296.898.5-.3 1.704 1.5 2.602 3.898 1.7 4.403 1.7 4.602-.5 7.301-1.2 1.5-2.7 2.801-3.3 2.801-.7 0-1.098.8-.9 1.7.098.902-.6 1.902-1.8 2.3-1.102.398-1.8 1-1.602 1.398.301.403-.398.704-1.398.801-1.3.102-2.5-1.5-4.398-5.898-1.403-3.301-2.301-6.5-1.903-7.102.301-.699.301-.898-.199-.5-.7.7-5.398-8.097-7-13.3-1.102-3.297-4.8-8.899-6-8.899-.5 0-2.5.8-4.3 1.7zm0 0M651 537c0 .5-.898 1-1.898 1-2.403 0-3.301 2.3-1.704 4.602 1.102 1.398 1.801 1.5 4.301.699 5.301-1.903 12.602-1.102 16.903 1.898 3.5 2.5 3.898 3.2 4.199 7.7l.3 4.902-7 .699c-3.8.398-8 .398-9.3 0-1.903-.5-2-.398-.801.5 1.2.898.8 1.102-2 .7-1.898-.302-2.898-.302-2.3-.098 1 .398 1 .898-.098 2-1.801 1.796-5 1.898-4 .097.398-.699.296-.898-.204-.398s-.898 1.199-.898 1.5c-.102.398-1.102 2.3-2.3 4.199-3 4.8-2.9 9.5.402 12.398 6.699 6 6.199 5.801 13.199 5.204 3.699-.403 7.199-.704 7.898-.801.7-.102 1.102-.602 1-1.102-.097-.5 1.102-1.398 2.7-2 2.402-.8 3.203-.699 4.203.7.898 1.203 2.296 1.601 5.097 1.402l3.801-.301.2-14.7c.1-11.698-.098-14.902-1.302-15.902C680.602 551.301 680 550 680 549c0-2.602-5.602-9.7-8.898-11.5-3.403-1.7-20.102-2.2-20.102-.5zm18.102 26.3c1.796 1.302 3.097 10.7 1.5 10.7-.5 0-.602.3-.301.7.398.3-.5 1.5-2 2.5-3.301 2.1-14.2 2.5-16.102.6-1.3-1.3-1.597-5.6-.597-8.198 1.097-2.801 9.597-7.102 14.898-7.5.602 0 1.7.5 2.602 1.199zm0 0"/><path d="M656.8 577.7c.7.3 1.598.198 1.9-.098.402-.301-.2-.602-1.302-.5-1.097 0-1.398.296-.597.597zm0 0M661.8 577.7c.7.3 1.598.198 1.9-.098.402-.301-.2-.602-1.302-.5-1.097 0-1.398.296-.597.597zm0 0M258 540.5v3.5h11.5c8.5 0 11.5.3 11.5 1.2 0 .902.398.8 1-.2.5-.8 1-1 1-.398 0 .898-6.602 10.199-10.3 14.398-.7.8-2.098 2.8-3 4.3-1 1.5-2.2 2.5-2.802 2.2-.5-.398-.898-.3-.796.2.296 1.902-.204 3.402-1 2.8-.5-.3-1.301 0-1.704.602-.398.796-.296.898.403.5.699-.403 1.199-.301 1.199.199 0 1.398-2.602 3.3-3.398 2.5-.403-.403-.403 0-.102.8.3.899-.2 2.2-1.2 3-1.698 1.297-1.698 1.297-.3-.601s1.398-1.898-.2-.602c-1 .704-1.8 2.204-1.8 3.301 0 1-.398 1.602-1 1.301-.602-.398-.7.2-.102 1.7.801 2.3 1.102 2.3 19 2.6 11.403.098 18.903-.1 20.102-.8 2.2-1.2 2.7-4.5.8-5.602-.6-.398-.902-.296-.5.204.5.898-21.5.796-24.1-.102-1-.398-1-.898 0-2.398.698-1.102 1.5-1.801 1.8-1.602.398.2.7-.102.7-.8 0-1.9 3.402-6.802 4.3-6.2.398.3.7-.3.602-1.2 0-1 .597-1.8 1.398-1.8.8 0 1.5-.898 1.5-2 0-1.102.602-1.898 1.3-1.7.802.098 1.098-.198.7-.698-.3-.602 1.5-3.704 3.898-7.102 2.5-3.3 4.801-7 5.102-8 .398-1.102 1-1.8 1.5-1.5.5.3.5-.7.102-2.2l-.704-2.8-18.199-.3L258 537zm0 0M462.5 539c-.3 1.102-.398 2.8-.102 3.7.5 1.6 1.801 1.8 13.102 1.3 7.5-.3 12.5-.102 12.5.398 0 1.204-5.2 9-6.2 9.403-.5.199-.8.8-.8 1.3s-.8 1.7-1.7 2.797c-3.8 3.903-7.1 8.102-7.698 9.602-.301 1-1.102 1.3-1.801.898-.7-.398-1-.398-.602.102.403.398-1.3 3.7-3.8 7.3-3.5 5-4.2 6.7-3.2 7.302.7.5 9.2.898 18.903.898 14.398 0 17.898-.3 18.898-1.5 2.5-3 .398-4.7-5.7-4.5-12 .3-19.3 0-19.3-.898 0-.5.602-1.602 1.3-2.301 2.598-2.801 6.7-8.7 6.7-9.7 0-.601.398-1.101.898-1.101s2-1.7 3.204-3.8c1.296-2 2.699-4.2 3.097-4.7.5-.602 1.801-2.2 3.102-3.7 3.699-4.5 7.097-11.402 6.398-13.198-.597-1.403-2.898-1.602-18.597-1.602-17.102 0-18 .102-18.602 2zm0 0M256.102 541.602c0 1.097.296 1.398.597.597.301-.699.2-1.597-.097-1.898-.301-.403-.602.199-.5 1.3zm0 0M670.8 554.5c-.3 1.398-.1 2.5.302 2.5.5 0 .898-1.102.898-2.5s-.2-2.5-.398-2.5c-.204 0-.602 1.102-.801 2.5zm0 0M592.602 555.3c.296 1 .898 1.5 1.199 1.2.3-.3 0-1.102-.7-1.8-1-.9-1.101-.802-.5.6zm0 0M659.8 557.7c.598.198 1.802.198 2.5 0 .598-.302.098-.5-1.3-.5-1.398 0-1.898.198-1.2.5zm0 0M331.8 577.7c.7.3 1.598.198 1.9-.098.402-.301-.2-.602-1.302-.5-1.097 0-1.398.296-.597.597zm0 0"/></svg>