<?xml version="1.0" standalone="no"?>
<!DOCTYPE svg PUBLIC "-//W3C//DTD SVG 20010904//EN"
 "http://www.w3.org/TR/2001/REC-SVG-20010904/DTD/svg10.dtd">
<svg version="1.0" xmlns="http://www.w3.org/2000/svg"
 width="237.000000pt" height="237.000000pt" viewBox="0 0 237.000000 237.000000"
 preserveAspectRatio="xMidYMid meet">
<metadata>
Created by potrace 1.14, written by Peter Selinger 2001-2017
</metadata>
<g transform="translate(0.000000,237.000000) scale(0.100000,-0.100000)"
fill="#000000" stroke="none">
<path d="M1051 1784 c-216 -47 -395 -210 -472 -429 -26 -72 -29 -93 -29 -210
0 -117 3 -138 29 -210 32 -93 79 -169 149 -246 l50 -55 -116 -70 -117 -69 360
-3 c398 -3 456 3 572 57 168 79 288 216 351 399 22 66 26 94 26 197 0 103 -4
131 -26 197 -78 226 -244 382 -466 438 -91 23 -217 25 -311 4z m319 -76 c153
-46 288 -163 359 -311 154 -321 -11 -701 -354 -814 -77 -25 -91 -26 -340 -30
l-260 -4 63 36 c34 20 62 40 62 44 0 5 -18 21 -41 37 -120 83 -210 230 -236
384 -14 84 -14 102 0 188 21 131 68 223 161 317 162 163 371 217 586 153z"/>
<path d="M1283 1373 c-7 -3 -24 -30 -39 -61 -107 -232 -164 -363 -164 -378 0
-8 10 -14 25 -14 26 0 30 7 123 210 16 36 41 91 56 122 44 96 44 136 -1 121z"/>
<path d="M868 1263 c-60 -60 -108 -113 -108 -118 0 -6 49 -59 109 -119 76 -76
114 -107 125 -103 33 13 15 47 -69 131 -47 46 -85 87 -85 91 0 4 39 45 86 92
64 63 85 89 82 106 -2 12 -10 23 -18 25 -8 1 -63 -46 -122 -105z"/>
<path d="M1397 1363 c-18 -17 0 -45 83 -128 l90 -90 -90 -90 c-88 -88 -106
-119 -74 -132 11 -4 49 27 125 103 60 60 109 113 109 119 0 14 -212 225 -226
225 -6 0 -14 -3 -17 -7z"/>
</g>
</svg>
