<?xml version="1.0" standalone="no"?>
<!DOCTYPE svg PUBLIC "-//W3C//DTD SVG 20010904//EN"
 "http://www.w3.org/TR/2001/REC-SVG-20010904/DTD/svg10.dtd">
<svg version="1.0" xmlns="http://www.w3.org/2000/svg"
 width="1070.000000pt" height="1070.000000pt" viewBox="0 0 1070.000000 1070.000000"
 preserveAspectRatio="xMidYMid meet">
<metadata>
Created by potrace 1.14, written by Peter Selinger 2001-2017
</metadata>
<g transform="translate(0.000000,1070.000000) scale(0.100000,-0.100000)"
fill="#000000" stroke="none">
<path d="M3420 5385 c0 -869 2 -985 15 -985 13 0 15 21 15 133 l0 132 79 185
c44 102 172 401 285 664 113 263 206 483 206 487 0 5 -114 10 -252 11 l-253 3
-3 178 -2 177 -45 0 -45 0 0 -985z"/>
<path d="M4470 6233 l0 -137 -281 -655 c-155 -361 -284 -662 -286 -668 -4 -10
50 -13 251 -13 l256 0 0 -180 0 -180 44 0 c34 0 46 4 50 18 3 9 30 130 60 267
80 359 133 597 155 695 20 86 79 349 126 560 15 63 39 171 55 240 16 69 32
140 35 158 l7 32 -236 0 -236 0 0 -137z"/>
<path d="M5340 6353 c0 -17 9 -56 65 -303 25 -108 40 -178 114 -510 16 -74 41
-184 55 -245 69 -306 149 -660 167 -745 11 -52 23 -104 27 -115 4 -11 9 396
12 905 5 910 5 924 22 845 10 -44 30 -132 44 -195 46 -203 61 -273 83 -370 11
-52 45 -205 76 -340 31 -135 71 -317 91 -405 19 -88 43 -196 53 -240 11 -44
27 -115 37 -157 l17 -78 193 0 193 0 11 58 c7 31 27 127 47 212 19 85 43 193
53 240 10 47 26 117 34 155 9 39 26 113 37 165 12 52 25 99 29 103 4 5 12 -18
18 -50 6 -32 34 -159 62 -283 29 -124 60 -263 70 -310 35 -161 61 -273 66
-282 3 -4 90 -8 193 -8 l189 0 22 98 c12 53 28 124 36 157 7 33 22 101 33 150
20 90 90 402 137 610 29 125 54 240 91 405 14 63 36 165 50 225 14 61 33 146
43 190 9 44 21 92 25 108 l7 27 -196 0 -195 0 -11 -41 c-6 -22 -18 -75 -25
-117 -8 -43 -39 -198 -70 -347 -30 -148 -72 -354 -93 -457 -20 -104 -40 -188
-43 -188 -6 0 -24 76 -54 230 -9 41 -47 231 -85 421 -39 191 -70 350 -70 353
0 3 -89 6 -198 6 l-199 0 -41 -207 c-86 -428 -161 -795 -165 -807 -7 -18 -12
2 -72 304 -32 157 -80 395 -107 530 -28 135 -53 261 -57 280 l-6 35 -408 3
c-383 2 -407 1 -407 -15z"/>
<path d="M8025 6338 c-4 -18 -19 -89 -35 -158 -15 -69 -42 -190 -60 -270 -18
-80 -45 -203 -61 -275 -17 -71 -41 -179 -54 -240 -91 -403 -129 -575 -175
-776 -22 -97 -40 -186 -40 -198 0 -21 1 -21 192 -19 l191 3 18 92 c10 51 20
97 24 103 7 12 435 14 435 3 0 -22 29 -184 35 -193 4 -6 76 -10 197 -10 l190
0 -5 33 c-2 17 -18 93 -35 167 -17 74 -45 198 -62 275 -17 77 -42 187 -55 245
-40 180 -121 541 -169 755 -12 55 -42 189 -66 298 l-44 197 -207 0 -207 0 -7
-32z m249 -688 c15 -85 36 -204 48 -265 11 -60 28 -162 39 -225 11 -63 22
-128 25 -145 l6 -30 -151 0 c-94 0 -151 4 -151 10 0 11 22 138 70 400 17 94
40 228 52 298 12 70 24 124 28 120 4 -4 20 -78 34 -163z"/>
<path d="M2071 6024 c-216 -47 -395 -210 -472 -429 -26 -72 -29 -93 -29 -210
0 -117 3 -138 29 -210 32 -93 79 -169 149 -246 l50 -55 -116 -70 -117 -69 360
-3 c398 -3 456 3 572 57 168 79 288 216 351 399 22 66 26 94 26 197 0 103 -4
131 -26 197 -78 226 -244 382 -466 438 -91 23 -217 25 -311 4z m319 -76 c153
-46 288 -163 359 -311 154 -321 -11 -701 -354 -814 -77 -25 -91 -26 -340 -30
l-260 -4 63 36 c34 20 62 40 62 44 0 5 -18 21 -41 37 -120 83 -210 230 -236
384 -14 84 -14 102 0 188 21 131 68 223 161 317 162 163 371 217 586 153z"/>
<path d="M2303 5613 c-7 -3 -24 -30 -39 -61 -107 -232 -164 -363 -164 -378 0
-8 10 -14 25 -14 26 0 30 7 123 210 16 36 41 91 56 122 44 96 44 136 -1 121z"/>
<path d="M1888 5503 c-60 -60 -108 -113 -108 -118 0 -6 49 -59 109 -119 76
-76 114 -107 125 -103 33 13 15 47 -69 131 -47 46 -85 87 -85 91 0 4 39 45 86
92 64 63 85 89 82 106 -2 12 -10 23 -18 25 -8 1 -63 -46 -122 -105z"/>
<path d="M2417 5603 c-18 -17 0 -45 83 -128 l90 -90 -90 -90 c-88 -88 -106
-119 -74 -132 11 -4 49 27 125 103 60 60 109 113 109 119 0 14 -212 225 -226
225 -6 0 -14 -3 -17 -7z"/>
<path d="M5115 5768 c-17 -95 -50 -277 -104 -584 -17 -95 -31 -176 -32 -180
-6 -32 2 -34 155 -34 85 0 157 3 160 8 4 7 -22 169 -84 522 -17 96 -38 217
-47 268 -9 50 -19 92 -23 92 -4 0 -15 -42 -25 -92z"/>
<path d="M4915 4610 c-7 -11 -35 -166 -35 -192 0 -17 19 -18 260 -18 143 0
260 2 260 5 0 17 -32 200 -36 207 -7 12 -442 10 -449 -2z"/>
</g>
</svg>
