<?xml version="1.0" standalone="no"?>
<!DOCTYPE svg PUBLIC "-//W3C//DTD SVG 20010904//EN"
 "http://www.w3.org/TR/2001/REC-SVG-20010904/DTD/svg10.dtd">
<svg version="1.0" xmlns="http://www.w3.org/2000/svg"
 width="687.000000pt" height="687.000000pt" viewBox="0 0 687.000000 687.000000"
 preserveAspectRatio="xMidYMid meet">
<metadata>
Created by potrace 1.14, written by Peter Selinger 2001-2017
</metadata>
<g transform="translate(0.000000,687.000000) scale(0.100000,-0.100000)"
fill="#000000" stroke="none">
<path d="M4370 4250 c0 -5 4 -10 9 -10 6 0 13 5 16 10 3 6 -1 10 -9 10 -9 0
-16 -4 -16 -10z"/>
<path d="M3570 4230 c0 -5 7 -10 16 -10 8 0 12 5 9 10 -3 6 -10 10 -16 10 -5
0 -9 -4 -9 -10z"/>
<path d="M3518 4223 c7 -3 16 -2 19 1 4 3 -2 6 -13 5 -11 0 -14 -3 -6 -6z"/>
<path d="M920 4167 c0 -15 -7 -42 -16 -59 -16 -30 -14 -99 3 -146 15 -38 -30
13 -50 58 l-20 45 -10 -28 c-16 -48 1 -109 54 -198 47 -79 50 -87 46 -139 -2
-30 -8 -64 -12 -75 -6 -14 -1 -12 14 7 l22 28 25 -28 24 -27 -15 37 c-27 66
-20 101 37 194 43 71 53 95 56 143 2 33 0 66 -5 75 -8 14 -12 10 -21 -22 -12
-41 -52 -88 -52 -61 0 8 5 31 10 51 8 29 7 45 -5 74 -8 20 -15 50 -15 67 0 30
0 30 -20 12 -20 -18 -21 -18 -35 1 -14 18 -14 18 -15 -9z m40 -244 c0 -20 -3
-24 -11 -16 -7 7 -9 19 -6 27 10 24 17 19 17 -11z"/>
<path d="M3426 4098 c3 -4 -17 -8 -43 -10 l-48 -3 1 -118 c1 -65 3 -120 5
-121 2 -2 32 -6 67 -8 l62 -4 0 58 0 58 55 0 c48 0 60 -4 80 -26 15 -16 25
-39 25 -55 0 -27 3 -29 40 -29 22 0 40 5 40 10 0 7 7 7 20 0 26 -14 40 -5 40
26 0 13 6 24 13 24 7 1 5 6 -5 14 -22 16 -23 26 -3 26 14 0 19 14 18 48 -1 6
4 12 11 12 6 0 4 5 -6 10 -10 6 -14 18 -11 30 3 11 0 20 -6 20 -5 0 -8 -6 -5
-14 3 -8 1 -17 -5 -20 -5 -4 -12 3 -16 14 -3 11 -13 20 -21 20 -9 0 -13 -5 -9
-12 4 -7 -5 -1 -19 15 -23 25 -33 28 -105 30 -88 4 -126 -5 -118 -27 3 -8 -1
-20 -9 -26 -9 -9 -14 -9 -14 -2 0 6 -7 9 -16 5 -12 -5 -12 0 4 28 l19 34 -23
0 c-12 0 -20 -3 -18 -7z m125 -61 c-10 -9 -11 -8 -5 6 3 10 9 15 12 12 3 -3 0
-11 -7 -18z m-72 -49 c0 -18 -3 -27 -6 -20 -2 6 -11 12 -18 12 -36 0 -20 29
23 39 1 1 2 -14 1 -31z m121 18 c0 -1 -9 -9 -20 -19 -19 -16 -20 -16 -20 7 0
19 4 23 20 19 11 -3 20 -6 20 -7z"/>
<path d="M2845 4091 l-30 -6 0 -178 c0 -97 2 -177 5 -177 3 0 5 -96 5 -212 0
-117 4 -234 8 -260 5 -33 4 -48 -3 -48 -6 0 -8 -4 -5 -10 3 -5 37 -10 76 -10
60 0 69 2 69 18 0 10 -5 23 -11 29 -9 9 -14 197 -9 353 l1 25 10 -23 c12 -32
32 -23 40 18 8 36 -2 73 -22 86 -9 5 -10 0 -5 -20 5 -19 3 -26 -9 -26 -17 0
-36 60 -24 75 5 5 9 22 9 37 0 15 5 28 10 28 6 0 10 -5 10 -11 0 -5 5 -7 11
-3 8 4 7 9 -2 15 -8 5 -9 9 -4 9 6 0 4 4 -3 9 -11 6 -14 40 -13 145 l2 136
-30 0 c-16 0 -35 2 -43 4 -7 2 -26 1 -43 -3z m0 -70 c3 -5 1 -12 -5 -16 -5 -3
-10 1 -10 9 0 18 6 21 15 7z m70 -131 c3 -5 1 -10 -4 -10 -6 0 -11 5 -11 10 0
6 2 10 4 10 3 0 8 -4 11 -10z m-15 -80 c0 -5 -2 -10 -4 -10 -3 0 -8 5 -11 10
-3 6 -1 10 4 10 6 0 11 -4 11 -10z m-46 -35 c3 -9 0 -15 -9 -15 -8 0 -15 7
-15 15 0 8 4 15 9 15 5 0 11 -7 15 -15z m75 -9 c7 -9 8 -17 3 -20 -6 -3 -13 1
-16 10 -4 9 -13 14 -22 10 -8 -3 -12 -2 -9 4 9 14 31 12 44 -4z m-29 -107 c0
-32 -34 -20 -38 14 -3 26 -2 28 17 17 12 -6 21 -20 21 -31z m-63 -1 c-3 -8 -6
-5 -6 6 -1 11 2 17 5 13 3 -3 4 -12 1 -19z"/>
<path d="M2338 4083 c-27 -4 -28 -7 -28 -62 0 -70 6 -73 107 -60 137 17 148 9
114 -79 -13 -32 -17 -54 -11 -57 6 -4 8 -11 4 -16 -3 -5 -9 -7 -13 -4 -11 6
-93 -193 -86 -206 4 -5 2 -9 -3 -9 -5 0 -32 -58 -61 -129 -43 -109 -51 -138
-51 -195 l0 -66 38 -1 c20 0 109 -1 197 -2 l160 -2 0 65 0 65 -68 3 c-37 2
-75 -2 -85 -7 -16 -10 -15 -10 3 -11 16 0 14 -4 -12 -21 -31 -19 -60 -18 -48
2 4 5 2 9 -4 9 -6 0 -15 9 -20 19 -12 22 -3 57 35 135 17 36 21 53 13 62 -6 7
-8 18 -4 25 6 8 9 8 15 -1 7 -11 133 294 160 385 6 22 10 67 8 100 l-3 60 -92
0 c-51 0 -94 -4 -96 -10 -2 -5 -20 -10 -41 -11 -23 0 -32 2 -24 7 9 6 5 9 -12
9 -14 0 -34 2 -45 4 -11 2 -32 1 -47 -1z m79 -35 c0 -7 3 -29 8 -48 6 -29 5
-33 -6 -23 -8 6 -27 13 -43 15 -27 3 -28 5 -15 18 9 8 14 20 12 27 -2 6 6 13
19 16 13 2 23 5 24 6 0 0 1 -5 1 -11z m150 -34 c-3 -3 -12 -4 -19 -1 -8 3 -5
6 6 6 11 1 17 -2 13 -5z m123 -14 c0 -5 -2 -10 -4 -10 -3 0 -8 5 -11 10 -3 6
-1 10 4 10 6 0 11 -4 11 -10z m-70 -51 c0 -5 -10 -9 -21 -9 -18 0 -19 2 -9 15
12 15 30 12 30 -6z m-100 -319 c0 -5 -5 -10 -11 -10 -5 0 -7 5 -4 10 3 6 8 10
11 10 2 0 4 -4 4 -10z m67 -346 c-3 -3 -12 -4 -19 -1 -8 3 -5 6 6 6 11 1 17
-2 13 -5z m-49 -34 c-7 -11 -24 -20 -38 -20 -23 0 -22 1 10 19 19 10 36 19 38
20 1 0 -3 -8 -10 -19z"/>
<path d="M2987 4084 c-3 -3 -4 -15 -2 -27 2 -12 6 -43 9 -68 l7 -45 112 4 c62
2 117 8 123 13 6 5 9 19 7 32 -3 17 2 26 19 34 l23 12 -22 0 c-22 1 -34 21
-13 21 6 0 10 5 10 11 0 5 -4 8 -9 4 -5 -3 -12 -1 -15 3 -6 10 -240 15 -249 6z"/>
<path d="M4110 4079 c0 -6 -7 -9 -15 -5 -8 3 -15 0 -15 -7 -1 -7 -23 -30 -50
-52 -26 -22 -46 -43 -44 -47 2 -3 0 -9 -6 -13 -6 -4 -7 -11 -4 -17 4 -6 2 -8
-3 -5 -6 4 -13 0 -17 -8 -3 -8 -12 -15 -21 -15 -19 0 -20 -19 0 -26 8 -4 12
-11 8 -18 -13 -19 -13 -46 -1 -46 6 0 4 -7 -5 -18 -13 -14 -17 -38 -17 -103 0
-53 -5 -90 -12 -97 -9 -9 -9 -12 2 -12 13 0 13 -2 0 -10 -10 -6 -11 -10 -2
-10 9 0 12 -26 12 -96 0 -119 14 -177 46 -194 13 -7 21 -17 18 -22 -16 -26 53
-65 127 -73 98 -10 171 28 209 108 32 65 29 68 -50 66 -53 -1 -73 -6 -86 -20
-25 -28 -79 -25 -110 6 -24 24 -25 31 -20 98 2 40 5 79 5 87 0 8 -1 68 -2 132
-2 106 0 117 15 112 20 -6 19 23 -2 36 -17 11 -19 58 -3 93 8 15 10 27 6 27
-15 1 42 29 58 30 24 0 69 -39 69 -61 0 -11 7 -19 18 -19 16 -1 16 -1 -1 -11
-16 -9 -17 -26 -13 -205 3 -107 8 -198 11 -204 3 -5 13 -10 20 -10 14 0 41
-38 37 -52 -1 -5 3 -8 9 -8 6 0 9 7 6 15 -5 11 1 13 26 9 24 -4 28 -3 17 5
-10 7 -11 11 -2 11 9 0 12 27 12 99 0 109 5 131 27 131 10 0 13 6 9 16 -3 9
-6 22 -6 30 0 9 -4 13 -9 10 -16 -10 -32 118 -18 141 4 6 1 35 -6 64 -9 43
-22 64 -60 102 -30 31 -53 47 -63 43 -9 -3 -12 -2 -9 5 4 6 -3 7 -21 3 -19 -5
-25 -4 -20 5 5 7 -3 11 -23 11 -17 0 -31 -5 -31 -11z m-144 -287 c-11 -10 -15
4 -8 28 l7 25 3 -23 c2 -13 1 -26 -2 -30z m-9 -334 c-2 -18 -4 -6 -4 27 0 33
2 48 4 33 2 -15 2 -42 0 -60z m0 -85 c-3 -10 -5 -2 -5 17 0 19 2 27 5 18 2
-10 2 -26 0 -35z m253 -152 c0 -5 -9 -11 -20 -14 -20 -5 -26 3 -13 16 9 10 33
8 33 -2z"/>
<path d="M4482 4021 l3 -56 73 -1 c40 0 75 3 77 7 4 6 82 -4 90 -13 3 -2 -5
-30 -16 -61 -17 -47 -18 -61 -8 -73 10 -12 9 -16 -9 -21 -14 -3 -27 -21 -38
-52 -9 -25 -27 -68 -40 -94 -12 -27 -20 -55 -17 -63 3 -8 1 -14 -5 -14 -6 0
-33 -57 -61 -127 -44 -113 -49 -135 -46 -188 l4 -60 143 -6 c79 -3 166 -5 193
-5 l50 1 0 65 0 65 -74 3 c-63 2 -73 1 -68 -13 4 -9 -3 -21 -18 -31 -25 -17
-61 -12 -50 6 3 5 2 10 -4 10 -6 0 -15 9 -20 19 -12 22 -3 57 35 135 17 36 21
53 13 62 -6 7 -8 18 -4 25 6 8 9 8 15 -1 6 -10 102 214 150 354 21 62 26 111
11 101 -5 -3 -12 -1 -15 4 -3 5 1 11 9 15 9 3 15 18 15 36 l0 30 -95 0 c-63 0
-95 -4 -95 -11 0 -7 -9 -9 -24 -5 -13 3 -30 7 -38 9 -7 2 -10 2 -5 0 14 -8 7
-19 -13 -20 -11 -1 -20 4 -20 12 0 11 -13 14 -50 14 l-51 -2 3 -56z m108 10
c5 -11 10 -30 10 -42 0 -18 -2 -19 -15 -9 -8 7 -26 10 -40 8 -28 -6 -32 3 -12
24 8 7 12 19 9 26 -6 20 36 14 48 -7z m152 -23 c-11 -11 -32 -3 -32 12 0 4 9
6 21 3 13 -4 17 -9 11 -15z m48 -59 c0 -5 -10 -9 -21 -9 -18 0 -19 2 -9 15 12
15 30 12 30 -6z m-100 -319 c0 -5 -5 -10 -11 -10 -5 0 -7 5 -4 10 3 6 8 10 11
10 2 0 4 -4 4 -10z m-55 -150 c3 -5 1 -10 -4 -10 -6 0 -11 5 -11 10 0 6 2 10
4 10 3 0 8 -4 11 -10z m129 -195 c-4 -8 -12 -15 -20 -15 -20 0 -17 18 4 23 9
3 18 5 19 6 1 0 0 -6 -3 -14z m-47 -35 c-1 -10 -3 -18 -5 -16 -1 2 -19 0 -38
-4 -41 -9 -39 -6 8 20 18 9 34 18 35 19 1 0 1 -8 0 -19z"/>
<path d="M5155 4070 c-9 -15 -3 -82 8 -98 7 -8 6 -17 -1 -24 -7 -7 -12 -20
-12 -29 0 -10 -5 -19 -11 -21 -5 -2 -12 -19 -15 -38 -3 -19 -8 -37 -10 -39 -2
-2 1 -11 8 -18 9 -11 9 -16 -2 -23 -12 -8 -11 -25 5 -76 5 -16 2 -23 -13 -26
-10 -3 -19 -13 -19 -21 0 -13 3 -14 14 -6 10 9 13 8 13 -2 0 -8 6 -5 14 6 8
11 12 24 9 29 -6 9 15 26 34 26 8 0 12 -14 11 -38 0 -22 2 -44 6 -50 5 -8 0
-11 -11 -10 -10 1 -37 -2 -60 -6 -32 -6 -43 -13 -43 -27 0 -12 5 -16 15 -13
11 5 13 2 9 -10 -3 -9 -12 -16 -19 -16 -8 0 -15 -24 -19 -71 -4 -40 -11 -79
-16 -88 -9 -18 -27 -95 -36 -160 l-7 -44 68 6 c37 4 69 8 71 10 2 2 6 19 9 37
23 150 33 169 88 161 12 -1 17 5 18 21 1 21 2 21 7 3 5 -13 16 -20 32 -20 20
0 26 -6 28 -30 2 -16 7 -34 11 -40 4 -5 9 -32 10 -60 3 -84 4 -85 74 -80 55 3
62 6 65 26 3 18 -20 188 -43 319 -4 19 -8 51 -10 70 -1 19 -5 42 -8 50 -3 8
-8 40 -11 70 -3 31 -12 71 -19 90 -8 19 -20 74 -27 123 -7 48 -16 87 -21 87
-5 0 -9 -5 -9 -11 0 -5 -5 -7 -10 -4 -8 5 -7 11 1 21 6 7 15 11 20 8 12 -7 11
3 -1 27 -9 17 -22 19 -100 19 -50 0 -92 -4 -95 -10z m123 -360 c5 -27 12 -44
20 -42 7 1 12 -2 12 -8 0 -5 -4 -10 -10 -10 -11 0 -14 -33 -3 -44 4 -3 8 -14
9 -24 1 -9 7 -32 12 -49 11 -34 5 -42 -15 -22 -9 9 -11 7 -7 -8 3 -11 -1 -25
-10 -32 -13 -11 -17 -10 -23 5 -4 10 -2 19 5 22 25 8 11 22 -22 22 -43 0 -48
8 -36 51 6 19 13 67 16 107 4 61 3 72 -10 72 -23 0 -20 17 4 23 11 3 20 14 20
24 0 11 3 23 8 27 7 8 17 -28 30 -114z m79 -76 c-3 -3 -12 -4 -19 -1 -8 3 -5
6 6 6 11 1 17 -2 13 -5z m-217 -59 c0 -8 -4 -15 -10 -15 -5 0 -10 7 -10 15 0
8 5 15 10 15 6 0 10 -7 10 -15z m228 -59 c-7 -8 -15 -12 -17 -11 -5 6 10 25
20 25 5 0 4 -6 -3 -14z m-183 -46 c3 -6 -1 -7 -9 -4 -18 7 -21 14 -7 14 6 0
13 -4 16 -10z m210 -40 c19 -8 19 -9 -2 -9 -12 -1 -25 4 -28 9 -7 12 2 12 30
0z m33 -39 c3 -8 -1 -12 -9 -9 -7 2 -15 10 -17 17 -3 8 1 12 9 9 7 -2 15 -10
17 -17z m-303 -121 c13 -5 14 -9 5 -9 -8 0 -24 4 -35 9 -13 5 -14 9 -5 9 8 0
24 -4 35 -9z"/>
<path d="M5490 4045 c0 -16 14 -102 30 -190 49 -259 56 -315 42 -324 -9 -6 -8
-13 6 -29 12 -13 24 -53 32 -99 7 -43 18 -107 24 -143 l11 -65 59 -3 c32 -2
62 1 67 5 7 7 34 147 45 233 2 19 7 42 9 51 8 23 -35 33 -55 14 -13 -13 -12
-15 5 -15 15 0 17 -2 6 -9 -7 -5 -22 -6 -33 -3 -11 3 -24 -1 -29 -9 -7 -11 -9
-9 -9 8 0 12 -5 25 -11 28 -6 4 -8 13 -5 21 3 9 -1 14 -12 15 -10 0 -12 3 -4
6 6 2 12 9 12 14 0 6 -4 8 -9 4 -5 -3 -13 0 -17 6 -8 14 36 51 54 44 6 -2 12
0 12 6 0 6 -9 13 -20 16 -11 3 -20 13 -20 22 0 9 -15 26 -32 38 l-32 22 30 12
c42 17 109 17 109 1 0 -20 33 -41 55 -35 12 3 22 -1 25 -9 7 -17 55 -12 55 6
0 6 4 5 9 -3 10 -16 31 -6 31 15 0 8 5 14 10 14 6 0 10 -8 10 -19 0 -22 -50
-46 -78 -37 -25 8 -37 -8 -17 -24 17 -14 68 -5 86 16 10 12 14 12 21 2 6 -10
10 -10 17 2 6 8 13 12 16 8 3 -3 26 0 51 8 26 8 44 9 44 3 0 -5 -13 -12 -30
-15 -16 -4 -28 -10 -25 -14 3 -4 -17 -10 -43 -13 -75 -9 -116 -18 -126 -27 -7
-7 48 -397 58 -407 4 -4 59 -7 92 -5 31 2 32 2 44 81 7 44 9 84 6 89 -3 6 1
12 9 16 8 3 12 12 9 20 -3 8 0 17 5 21 6 3 8 12 4 18 -4 7 1 6 10 -2 26 -20
32 -6 8 16 l-21 20 25 11 c14 7 38 12 53 13 27 0 27 0 4 10 -15 6 -30 5 -43
-1 -13 -7 -19 -7 -19 0 0 5 6 10 13 10 8 0 7 4 -3 10 -13 8 -13 10 2 10 9 0
20 5 24 11 4 8 -1 9 -16 4 -23 -7 -23 -6 -17 54 3 34 1 61 -4 61 -5 0 -9 8 -8
18 0 9 3 12 5 5 4 -8 14 -9 34 -3 16 4 32 5 36 2 7 -7 -1 32 -12 63 -5 11 -2
16 7 15 26 -4 37 0 43 16 4 11 1 14 -13 9 -10 -3 -24 1 -31 10 -10 12 -10 15
3 15 9 0 22 9 30 20 8 11 17 17 20 13 4 -3 7 -1 7 5 0 7 8 12 18 13 9 1 0 6
-21 11 -21 6 -41 18 -45 27 -3 9 -10 19 -16 23 -7 4 -6 14 1 31 12 25 2 59
-11 38 -4 -6 -12 -8 -18 -5 -5 3 1 11 14 18 24 12 39 66 19 66 -10 0 -15 -14
-12 -33 1 -5 -3 -6 -9 -2 -5 3 -10 13 -10 21 0 10 -12 14 -44 14 -25 0 -47 -3
-49 -7 -3 -5 -8 -33 -11 -63 -6 -53 -5 -56 23 -71 16 -10 40 -14 55 -12 15 3
26 1 26 -6 0 -6 -6 -11 -14 -11 -8 0 -21 -6 -28 -12 -15 -14 -55 -38 -63 -38
-3 0 -3 11 1 25 7 29 -2 32 -26 10 -10 -9 -25 -13 -34 -9 -15 6 -15 7 1 20 16
12 16 15 3 23 -10 7 -16 7 -18 1 -2 -6 -10 -10 -19 -10 -12 0 -14 9 -9 40 3
22 2 40 -3 40 -4 0 -12 17 -17 38 -9 37 -9 37 -77 46 -37 5 -70 7 -73 4 -3 -3
-10 -35 -16 -72 -7 -43 -15 -63 -22 -59 -8 5 -8 3 0 -8 13 -18 16 -57 3 -64
-5 -4 -9 -31 -9 -61 0 -46 -3 -54 -19 -54 -21 0 -35 42 -19 58 6 6 3 15 -6 25
-15 14 -59 207 -50 216 2 2 13 -4 23 -13 11 -10 26 -16 33 -13 8 3 6 6 -5 6
-10 1 -16 5 -13 10 13 20 -24 31 -98 29 l-76 -2 0 -31z m25 -14 c3 -5 1 -12
-5 -16 -5 -3 -10 1 -10 9 0 18 6 21 15 7z m325 -26 c10 -12 10 -15 -3 -15 -10
0 -14 -6 -11 -14 3 -9 -8 -17 -35 -24 -43 -10 -49 -5 -31 29 6 11 21 19 36 19
14 0 22 4 19 10 -10 16 11 12 25 -5z m-223 -61 c-3 -3 -12 -4 -19 -1 -8 3 -5
6 6 6 11 1 17 -2 13 -5z m176 -88 c23 -18 21 -28 -5 -24 -13 2 -24 11 -26 21
-4 20 6 21 31 3z m206 -22 c-6 -8 -7 -14 -2 -14 14 0 6 -72 -9 -82 -11 -6 -10
-8 0 -8 7 0 10 -5 7 -11 -5 -6 -13 -2 -22 11 -16 23 -10 75 8 65 6 -4 7 3 3
19 -7 28 2 49 17 40 6 -4 6 -11 -2 -20z m-339 -5 c0 -6 -4 -7 -10 -4 -5 3 -10
11 -10 16 0 6 5 7 10 4 6 -3 10 -11 10 -16z m220 6 c0 -8 -7 -15 -15 -15 -16
0 -20 12 -8 23 11 12 23 8 23 -8z m-316 -20 c-4 -8 -8 -15 -10 -15 -2 0 -4 7
-4 15 0 8 4 15 10 15 5 0 7 -7 4 -15z m43 -102 c-8 -7 -37 9 -31 19 3 5 12 4
20 -3 8 -6 13 -14 11 -16z m558 -11 c-3 -3 -11 0 -18 7 -9 10 -8 11 6 5 10 -3
15 -9 12 -12z m-435 -292 c0 -5 -2 -10 -4 -10 -3 0 -8 5 -11 10 -3 6 -1 10 4
10 6 0 11 -4 11 -10z m-20 -70 c0 -5 -9 -10 -19 -10 -11 0 -23 5 -26 10 -4 6
5 10 19 10 14 0 26 -4 26 -10z"/>
<path d="M6458 4073 c-62 -4 -68 -6 -74 -29 -4 -14 -1 -31 6 -39 10 -12 10
-15 -1 -15 -9 -1 -7 -6 6 -16 14 -11 16 -18 8 -21 -7 -3 -13 -16 -13 -30 0
-20 -4 -24 -17 -19 -10 4 -15 4 -11 1 3 -3 2 -24 -3 -47 -7 -28 -6 -44 2 -54
8 -10 7 -17 -5 -29 -15 -15 -12 -45 5 -45 4 0 6 -7 2 -16 -5 -13 0 -14 30 -9
l36 7 -2 -50 -2 -50 -51 -7 c-39 -5 -53 -11 -57 -25 -3 -13 0 -17 9 -13 8 3
14 -1 14 -10 0 -8 -9 -17 -19 -20 -16 -4 -19 -14 -20 -62 0 -31 -7 -69 -14
-85 -15 -29 -44 -196 -36 -205 3 -2 34 -1 69 3 l64 7 13 85 c15 91 35 123 73
113 18 -5 25 5 21 30 0 4 3 7 9 7 6 0 10 -6 10 -14 0 -9 12 -16 28 -18 20 -2
28 -9 30 -28 2 -14 6 -32 9 -40 3 -8 5 -21 4 -29 -2 -8 2 -10 11 -5 11 6 11 5
0 -8 -8 -10 -10 -30 -6 -57 l7 -41 63 0 64 0 0 39 c0 21 -7 78 -16 127 -9 49
-20 116 -24 149 -5 33 -11 75 -14 93 -4 21 -2 32 6 32 7 0 5 5 -4 13 -10 7
-18 35 -22 74 -3 35 -10 71 -15 82 -6 10 -18 63 -26 117 -15 88 -25 129 -25
96 0 -7 -4 -12 -10 -12 -5 0 -10 9 -10 20 0 11 7 20 15 20 13 0 14 4 5 20 -6
12 -20 19 -33 18 -12 -1 -52 -3 -89 -5z m42 -283 c0 -16 5 -32 11 -35 6 -4 8
-14 5 -22 -9 -22 4 -63 20 -63 19 0 18 -16 -1 -24 -11 -4 -13 -11 -5 -28 5
-13 14 -42 20 -65 6 -24 14 -43 18 -43 18 1 34 20 29 34 -4 9 -3 16 2 16 14 0
19 -35 7 -46 -20 -19 -57 -24 -63 -8 -3 8 -10 14 -15 14 -7 0 -6 -5 1 -13 8
-11 6 -18 -8 -31 -21 -19 -42 -3 -22 17 19 19 12 27 -25 27 l-37 0 8 43 c3 23
8 62 10 87 3 25 6 57 9 72 4 21 1 27 -19 32 -14 4 -25 11 -25 17 0 6 5 7 10 4
6 -3 10 -1 10 6 0 8 4 8 15 -1 13 -10 15 -9 15 12 0 14 3 28 6 31 12 12 24 -4
24 -33z m95 -160 c-3 -5 -1 -10 6 -10 7 0 10 -3 6 -6 -3 -3 -16 1 -29 10 l-22
16 22 0 c13 0 20 -4 17 -10z m-225 -55 c0 -8 -4 -15 -9 -15 -5 0 -11 7 -15 15
-3 9 0 15 9 15 8 0 15 -7 15 -15z m50 -99 c9 -12 8 -15 -9 -13 -21 1 -26 8
-14 20 9 9 9 9 23 -7z m238 -64 c6 -9 12 -19 12 -24 0 -14 -30 -8 -36 7 -4 8
-12 15 -20 15 -8 0 -14 6 -14 14 0 18 40 10 58 -12z m-4 -66 c-3 -9 -10 -16
-15 -16 -5 0 -4 9 3 20 14 22 21 20 12 -4z m-322 -28 c-7 -7 -12 -8 -12 -2 0
14 12 26 19 19 2 -3 -1 -11 -7 -17z m21 -45 c15 -3 27 -9 27 -14 0 -4 -20 -1
-45 8 -25 8 -45 17 -45 20 0 3 8 2 18 -2 9 -3 29 -9 45 -12z"/>
<path d="M3866 4022 c-2 -4 2 -15 9 -25 11 -16 13 -15 13 8 0 24 -12 33 -22
17z"/>
<path d="M668 3960 c-10 -6 -18 -20 -18 -30 0 -24 15 -26 24 -5 11 29 57 17
97 -25 47 -50 69 -117 70 -219 0 -62 2 -71 11 -51 5 14 8 60 5 104 -6 88 -42
174 -87 207 -32 24 -80 32 -102 19z"/>
<path d="M1142 3949 c-66 -43 -111 -179 -96 -293 l8 -61 7 98 c5 76 13 109 34
153 38 78 104 116 135 79 9 -11 16 -13 23 -6 16 16 -21 51 -52 51 -14 0 -41
-10 -59 -21z"/>
<path d="M684 3899 c-3 -6 -19 -9 -35 -5 -25 5 -29 3 -29 -18 0 -15 -7 -26
-20 -29 -30 -8 -34 -33 -14 -85 32 -85 184 -215 231 -198 24 10 14 175 -16
241 -36 82 -95 129 -117 94z m49 -143 c14 -13 32 -36 40 -52 20 -39 32 -104
20 -104 -33 0 -102 107 -103 158 0 28 11 28 43 -2z"/>
<path d="M741 3690 c14 -31 19 -36 19 -24 0 6 -7 19 -16 30 -14 18 -14 18 -3
-6z"/>
<path d="M1144 3873 c-47 -51 -68 -121 -69 -220 0 -45 3 -84 7 -88 12 -12 77
18 133 62 97 76 148 201 90 223 -16 6 -25 17 -25 31 0 17 -4 20 -24 15 -14 -3
-28 -2 -31 4 -13 21 -48 9 -81 -27z m40 -193 c-15 -27 -38 -57 -50 -65 -23
-15 -24 -15 -24 15 0 40 32 102 67 130 l28 22 3 -26 c2 -14 -9 -48 -24 -76z"/>
<path d="M1151 3689 c-7 -12 -10 -23 -8 -26 3 -3 11 5 17 17 15 28 8 35 -9 9z"/>
<path d="M546 3881 c-25 -28 -31 -89 -13 -133 21 -51 82 -115 142 -149 57 -33
89 -40 35 -8 -51 31 -119 99 -141 142 -27 52 -23 118 9 132 12 5 21 14 19 20
-6 18 -33 16 -51 -4z"/>
<path d="M1307 3893 c-13 -12 -7 -23 13 -23 26 0 43 -41 34 -86 -13 -70 -71
-136 -174 -197 -56 -33 -47 -34 24 -3 64 28 141 101 163 153 20 50 19 120 -3
144 -17 19 -45 25 -57 12z"/>
<path d="M875 3795 c16 -43 17 -131 2 -168 -20 -46 -5 -49 17 -3 23 49 21 124
-5 161 -12 17 -18 21 -14 10z"/>
<path d="M1014 3785 c-33 -50 -27 -154 11 -185 11 -9 11 -3 -1 36 -17 58 -17
88 0 137 16 43 13 47 -10 12z"/>
<path d="M414 3750 c20 -29 36 -56 36 -61 0 -16 -18 -9 -41 16 -31 34 -72 55
-104 55 -15 0 -35 5 -46 10 -16 9 -19 7 -16 -11 1 -17 -5 -25 -23 -30 -15 -4
-18 -7 -8 -8 9 -1 33 -21 54 -46 28 -34 48 -48 81 -56 24 -6 45 -15 48 -19 8
-13 -42 -21 -87 -14 -43 7 -43 7 -25 -14 36 -40 79 -52 192 -52 118 0 147 -9
190 -62 15 -19 22 -23 16 -11 -17 34 -13 53 12 54 14 0 6 5 -21 14 -57 18 -80
39 -108 103 -48 106 -94 156 -162 177 -22 6 -21 3 12 -45z m47 -130 c31 -25
13 -26 -26 0 -20 13 -24 20 -14 20 9 0 27 -9 40 -20z"/>
<path d="M1482 3787 c-49 -15 -88 -59 -132 -147 -44 -88 -75 -117 -134 -127
-36 -6 -38 -7 -16 -13 20 -5 25 -12 23 -35 l-2 -29 29 32 c40 44 67 52 181 52
107 0 150 12 184 50 l20 23 -45 -6 c-25 -3 -54 -2 -65 2 -22 9 -20 11 61 41
17 6 38 23 45 37 8 15 27 34 42 43 l28 18 -26 6 c-21 5 -24 9 -15 26 15 29 12
33 -12 16 -12 -9 -37 -16 -55 -16 -23 0 -45 -11 -79 -40 -25 -23 -48 -39 -51
-36 -9 9 9 48 39 82 32 36 31 38 -20 21z m13 -147 c-3 -6 -21 -17 -38 -26
l-32 -15 28 25 c28 26 54 35 42 16z"/>
<path d="M3664 3758 c-3 -10 -10 -16 -15 -13 -5 4 -9 1 -9 -4 0 -6 7 -11 15
-11 20 0 19 -16 -1 -24 -14 -5 -16 -18 -12 -81 3 -41 1 -75 -4 -75 -4 0 -8 37
-9 83 0 45 -3 76 -6 69 -7 -17 -75 -50 -90 -45 -7 3 -16 -3 -19 -11 -5 -13
-15 -15 -52 -10 -42 6 -45 5 -33 -10 12 -14 12 -19 1 -29 -10 -9 -14 -9 -17 1
-4 10 -8 10 -19 1 -11 -9 -15 -8 -20 5 -5 13 -9 14 -20 5 -11 -9 -14 -54 -14
-216 l0 -204 55 2 c30 1 59 5 64 9 6 3 11 74 13 165 l3 160 44 0 44 0 33 -130
c19 -71 38 -146 44 -166 l10 -36 65 -2 c80 -2 79 -14 20 218 l-44 174 30 36
c16 20 29 43 29 53 0 9 4 19 10 23 5 3 7 12 3 20 -3 8 0 15 7 15 9 0 8 6 -2
23 -20 29 -95 33 -104 5z m-80 -125 c27 11 18 -8 -13 -26 -28 -17 -29 -16 -33
8 -5 25 12 40 23 22 4 -5 14 -7 23 -4z m-100 -59 c4 -9 4 -19 2 -21 -8 -8 -26
8 -26 23 0 19 16 18 24 -2z m-64 -4 c0 -5 -2 -10 -4 -10 -3 0 -8 5 -11 10 -3
6 -1 10 4 10 6 0 11 -4 11 -10z m10 -74 c0 -3 -4 -8 -10 -11 -5 -3 -10 -1 -10
4 0 6 5 11 10 11 6 0 10 -2 10 -4z m-24 -141 c-5 -13 -8 -14 -19 -3 -10 9 -11
16 -3 24 14 16 31 0 22 -21z"/>
<path d="M3455 3760 c-3 -5 -1 -10 4 -10 6 0 11 5 11 10 0 6 -2 10 -4 10 -3 0
-8 -4 -11 -10z"/>
<path d="M3452 3720 c-7 -11 -8 -20 -4 -20 5 0 9 -7 9 -15 0 -10 -4 -12 -12
-5 -8 7 -22 2 -44 -14 -21 -15 -28 -27 -21 -31 6 -4 20 2 31 14 21 22 35 28
24 11 -3 -5 3 -10 14 -10 18 0 21 6 21 45 0 25 -1 45 -3 45 -1 0 -8 -9 -15
-20z"/>
<path d="M3053 3698 c-29 -38 -20 -106 15 -119 19 -7 26 -3 47 31 14 22 25 46
25 54 0 8 7 16 15 20 18 6 20 26 4 26 -7 0 -18 -8 -26 -17 -14 -17 -14 -17 -9
0 4 14 -1 17 -28 17 -18 0 -38 -6 -43 -12z"/>
<path d="M5160 3689 c0 -5 5 -7 10 -4 6 3 10 8 10 11 0 2 -4 4 -10 4 -5 0 -10
-5 -10 -11z"/>
<path d="M6390 3690 c0 -5 4 -10 9 -10 6 0 13 5 16 10 3 6 -1 10 -9 10 -9 0
-16 -4 -16 -10z"/>
<path d="M6345 3676 c-16 -11 -16 -14 -2 -19 8 -3 21 0 27 8 15 19 -3 27 -25
11z"/>
<path d="M3158 3637 c-3 -15 -2 -30 3 -32 12 -8 16 8 9 35 l-6 25 -6 -28z"/>
<path d="M4400 3645 c7 -9 15 -13 17 -11 7 7 -7 26 -19 26 -6 0 -6 -6 2 -15z"/>
<path d="M580 3634 c0 -20 58 -78 94 -95 45 -20 86 -25 86 -9 0 6 -10 10 -22
10 -34 0 -105 38 -133 72 -14 16 -25 26 -25 22z"/>
<path d="M1292 3610 c-26 -34 -98 -70 -136 -70 -17 0 -25 -4 -20 -11 10 -17
78 -5 119 21 19 12 42 35 51 52 20 39 15 42 -14 8z"/>
<path d="M4468 3633 c7 -3 16 -2 19 1 4 3 -2 6 -13 5 -11 0 -14 -3 -6 -6z"/>
<path d="M2625 3620 c3 -5 13 -10 21 -10 8 0 14 5 14 10 0 6 -9 10 -21 10 -11
0 -17 -4 -14 -10z"/>
<path d="M4805 3620 c3 -5 8 -10 11 -10 2 0 4 5 4 10 0 6 -5 10 -11 10 -5 0
-7 -4 -4 -10z"/>
<path d="M940 3610 c0 -5 5 -10 10 -10 6 0 10 5 10 10 0 6 -4 10 -10 10 -5 0
-10 -4 -10 -10z"/>
<path d="M837 3555 c-15 -14 -34 -25 -42 -25 -19 0 -37 -34 -29 -54 5 -14 8
-14 27 -1 12 8 32 15 44 15 13 0 29 11 39 25 9 13 25 27 37 31 20 6 20 7 2 20
-27 20 -46 17 -78 -11z"/>
<path d="M993 3569 c-14 -14 47 -79 74 -79 10 0 28 -7 39 -15 12 -8 24 -11 28
-8 14 15 4 44 -21 59 -16 9 -40 25 -55 35 -31 22 -49 24 -65 8z"/>
<path d="M3805 3560 c-3 -5 -1 -10 4 -10 6 0 11 5 11 10 0 6 -2 10 -4 10 -3 0
-8 -4 -11 -10z"/>
<path d="M888 3502 c-18 -16 -45 -32 -60 -36 -32 -7 -58 -42 -58 -77 1 -13 0
-56 0 -95 -1 -68 1 -73 30 -98 18 -14 39 -26 49 -26 10 0 28 -11 41 -25 32
-34 91 -35 125 -1 13 13 35 26 49 30 53 13 86 73 68 124 -6 19 -6 35 0 46 22
40 -21 126 -64 126 -10 0 -27 9 -37 19 -49 49 -96 53 -143 13z m76 -34 c3 -13
6 -36 6 -51 0 -37 22 -44 71 -22 56 26 60 10 9 -34 -43 -37 -43 -38 -24 -57
11 -10 31 -26 44 -35 38 -26 16 -34 -36 -14 -52 20 -64 13 -64 -37 0 -70 -26
-76 -35 -8 -4 27 -11 53 -16 56 -5 3 -30 -2 -54 -12 -25 -9 -48 -14 -51 -11
-3 3 13 20 35 38 23 18 41 37 41 42 0 5 -19 27 -42 48 -43 38 -36 52 12 24 56
-32 80 -14 80 63 0 37 15 43 24 10z"/>
<path d="M553 3486 c47 -19 83 -47 114 -88 30 -41 30 -22 1 22 -32 46 -67 70
-113 75 l-40 5 38 -14z"/>
<path d="M1310 3489 c-32 -13 -68 -47 -86 -81 -20 -38 -11 -35 33 13 25 27 57
47 93 59 51 18 53 19 20 19 -19 0 -46 -5 -60 -10z"/>
<path d="M322 3460 c-42 -26 -58 -60 -43 -89 17 -31 29 -26 27 11 -1 26 6 36
34 56 50 34 139 27 230 -17 61 -30 63 -30 35 -6 -73 62 -218 85 -283 45z"/>
<path d="M710 3465 c0 -8 2 -15 4 -15 2 0 6 7 10 15 3 8 1 15 -4 15 -6 0 -10
-7 -10 -15z"/>
<path d="M1176 3466 c3 -9 11 -16 16 -16 13 0 5 23 -10 28 -7 2 -10 -2 -6 -12z"/>
<path d="M1375 3460 c-103 -41 -176 -118 -145 -155 5 -6 7 -14 4 -17 -19 -19
148 -113 221 -124 87 -13 180 37 173 94 -2 17 -10 28 -22 30 -15 3 -16 1 -8
-14 24 -43 -36 -84 -121 -84 -64 0 -102 12 -180 58 -67 39 -72 55 -6 18 63
-36 155 -58 207 -50 50 7 72 26 72 58 0 13 7 29 15 36 14 12 14 15 0 30 -8 9
-15 28 -15 42 0 68 -186 63 -293 -8 -21 -14 -41 -23 -43 -21 -3 2 18 19 45 37
108 69 213 88 281 51 30 -16 35 -24 35 -55 0 -39 4 -43 23 -24 26 26 11 68
-38 101 -34 24 -140 22 -205 -3z m68 -122 c17 -9 18 -12 5 -25 -9 -8 -33 -17
-54 -20 -41 -5 -119 15 -119 32 0 5 18 15 40 22 41 12 95 9 128 -9z"/>
<path d="M353 3415 c-15 -10 -23 -27 -23 -44 0 -18 -7 -31 -17 -36 -17 -6 -17
-8 2 -23 13 -11 19 -26 17 -43 -4 -38 38 -53 132 -47 60 4 85 11 136 39 81 45
94 63 60 89 -14 11 -49 32 -79 47 -68 34 -193 44 -228 18z m267 -80 l25 -14
-37 -15 c-21 -9 -51 -16 -68 -16 -39 0 -103 27 -95 40 18 29 122 32 175 5z"/>
<path d="M1156 3382 c-8 -47 -8 -67 0 -114 7 -43 16 -47 37 -18 13 19 15 18
38 -17 34 -53 83 -83 133 -82 l41 0 -50 14 c-40 10 -60 24 -103 72 -47 51 -53
63 -51 98 2 58 1 63 -20 74 -17 9 -20 6 -25 -27z"/>
<path d="M707 3403 c-4 -3 -7 -39 -7 -79 0 -63 3 -75 20 -84 17 -9 20 -8 20
12 0 13 6 34 13 48 11 21 11 29 -1 48 -8 12 -12 31 -9 42 4 14 0 20 -12 20
-10 0 -21 -3 -24 -7z"/>
<path d="M3001 3260 l1 -67 70 -2 70 -2 -4 30 c-3 17 -1 31 4 31 5 0 6 5 2 11
-4 7 -1 10 7 7 8 -3 14 -11 15 -19 0 -8 2 -24 2 -36 3 -36 32 -29 32 7 0 17
-4 30 -10 30 -5 0 -10 5 -10 11 0 5 5 7 10 4 6 -4 10 8 10 29 l0 36 -100 -1
-100 -2 1 -67z m56 18 c-3 -7 -5 -2 -5 12 0 14 2 19 5 13 2 -7 2 -19 0 -25z"/>
<path d="M275 3271 c-14 -44 35 -93 106 -106 51 -10 148 18 214 60 30 19 55
37 55 39 0 2 -34 -13 -76 -35 -65 -34 -84 -39 -140 -39 -39 0 -77 6 -94 15
-30 15 -48 54 -35 74 3 6 -1 11 -9 11 -8 0 -17 -8 -21 -19z"/>
<path d="M656 3235 c-27 -34 -67 -61 -116 -76 l-25 -7 28 -1 c48 -2 106 38
133 92 20 37 12 34 -20 -8z"/>
<path d="M1219 3203 c19 -37 14 -53 -16 -54 -24 0 -21 -2 15 -14 67 -21 87
-39 126 -116 60 -118 82 -141 154 -163 21 -7 20 -5 -10 43 -17 28 -28 54 -25
57 3 4 25 -10 48 -30 32 -27 52 -36 79 -36 19 0 46 -7 58 -16 21 -15 22 -14
12 10 -8 23 -7 26 10 26 11 0 20 1 20 3 0 2 -21 27 -47 55 -33 34 -61 54 -90
63 -62 18 -53 31 17 27 33 -1 60 0 60 3 0 12 -36 39 -73 54 -26 11 -67 15
-136 14 -110 -1 -130 5 -179 59 -20 22 -29 28 -23 15z m256 -183 c23 -26 8
-26 -25 0 -18 14 -21 20 -9 20 9 0 24 -9 34 -20z"/>
<path d="M661 3187 c-25 -47 -63 -59 -190 -61 -110 -1 -120 -3 -159 -29 -23
-15 -42 -31 -42 -35 0 -4 27 -5 60 -4 70 4 81 -12 19 -28 -27 -8 -57 -28 -90
-62 -27 -28 -49 -52 -49 -54 0 -2 9 -4 20 -4 23 0 24 -4 9 -32 -11 -20 -10
-20 12 -4 13 9 41 16 61 16 31 0 47 8 82 40 24 22 46 40 50 40 14 0 -6 -45
-35 -82 -33 -42 -26 -47 29 -19 50 26 66 44 120 147 45 86 49 90 102 111 36
15 47 22 32 23 -21 0 -23 3 -17 30 8 36 3 38 -14 7z m-204 -162 c-32 -28 -57
-34 -36 -9 12 14 44 32 59 33 3 0 -8 -11 -23 -24z"/>
<path d="M766 3175 c-3 -9 -2 -25 4 -35 8 -16 4 -18 -44 -22 -55 -5 -107 -33
-127 -69 -8 -16 -2 -14 31 10 42 30 77 44 137 55 23 4 41 -1 68 -19 41 -28 67
-32 84 -11 10 11 8 16 -9 21 -11 4 -28 17 -36 31 -10 15 -26 24 -42 24 -14 0
-33 7 -42 15 -16 14 -18 14 -24 0z"/>
<path d="M1112 3174 c-7 -8 -24 -14 -38 -14 -32 0 -96 -64 -80 -80 16 -16 33
-12 74 14 33 22 42 24 84 16 60 -12 105 -35 140 -73 38 -40 36 -16 -2 27 -37
42 -107 71 -147 61 -23 -5 -26 -4 -15 6 13 14 16 45 5 52 -5 3 -14 -1 -21 -9z"/>
<path d="M1180 3180 c0 -5 5 -10 10 -10 6 0 10 5 10 10 0 6 -4 10 -10 10 -5 0
-10 -4 -10 -10z"/>
<path d="M3815 3099 c-4 -6 -5 -12 -2 -15 2 -3 7 2 10 11 7 17 1 20 -8 4z"/>
<path d="M705 3065 c-114 -55 -193 -162 -182 -246 6 -49 22 -69 53 -69 31 0
31 14 -1 28 -21 10 -25 18 -25 57 0 83 62 165 170 224 66 37 56 40 -15 6z"/>
<path d="M749 3059 c-90 -50 -158 -130 -173 -204 -7 -33 0 -48 27 -58 9 -3 17
-16 17 -27 0 -19 4 -21 30 -15 19 4 30 3 30 -4 0 -6 11 -11 24 -11 33 0 79 55
105 125 25 67 30 209 8 218 -8 3 -38 -8 -68 -24z m41 -76 c-13 -44 -67 -113
-89 -113 -34 0 9 111 60 154 39 33 46 23 29 -41z"/>
<path d="M1080 3071 c-20 -38 -4 -184 27 -246 34 -67 98 -108 118 -75 3 6 17
7 31 4 19 -5 24 -2 24 13 0 10 10 23 23 28 72 32 -16 190 -148 266 -59 34 -61
34 -75 10z m71 -52 c39 -39 77 -149 51 -149 -14 0 -70 64 -81 93 -14 36 -14
77 -1 77 6 0 19 -9 31 -21z"/>
<path d="M1140 2984 c0 -6 7 -19 15 -30 8 -10 14 -14 14 -9 0 6 -6 19 -14 29
-8 11 -15 15 -15 10z"/>
<path d="M1183 3058 c114 -62 198 -189 169 -253 -7 -15 -20 -25 -33 -25 -12 0
-19 -5 -17 -12 7 -20 38 -21 59 -2 26 23 26 102 0 152 -26 51 -111 128 -167
152 -70 30 -76 23 -11 -12z"/>
<path d="M3168 3063 c7 -3 16 -2 19 1 4 3 -2 6 -13 5 -11 0 -14 -3 -6 -6z"/>
<path d="M876 3025 c16 -40 18 -112 4 -151 -15 -38 -5 -42 14 -5 21 39 20 114
0 157 -21 45 -37 44 -18 -1z"/>
<path d="M1013 3033 c-20 -31 -24 -127 -6 -158 10 -16 11 -10 7 35 -4 34 0 73
9 103 17 54 15 58 -10 20z"/>
<path d="M940 3040 c0 -5 4 -10 9 -10 6 0 13 5 16 10 3 6 -1 10 -9 10 -9 0
-16 -4 -16 -10z"/>
<path d="M1047 2990 c-18 -156 59 -310 155 -310 26 0 58 22 58 40 0 17 -20 21
-26 6 -9 -22 -51 -20 -85 5 -52 37 -81 110 -88 224 l-7 100 -7 -65z"/>
<path d="M838 2940 c-5 -104 -20 -143 -71 -197 -35 -37 -81 -44 -103 -15 -13
16 -13 16 -14 -3 0 -49 55 -60 111 -22 51 34 89 117 96 208 3 41 1 85 -5 99
-7 19 -10 4 -14 -70z"/>
<path d="M915 3015 c31 -88 26 -113 -36 -210 -48 -75 -66 -140 -53 -186 l10
-34 21 46 c19 42 39 66 48 58 2 -2 -2 -28 -7 -57 -9 -45 -8 -59 6 -88 9 -19
16 -47 16 -61 0 -26 1 -26 14 -8 14 19 15 19 37 0 12 -11 19 -14 15 -7 -5 8 0
34 9 58 13 35 16 61 11 112 l-7 67 21 -25 c11 -14 25 -42 32 -63 9 -31 13 -35
21 -21 21 38 2 117 -51 210 -55 94 -66 149 -41 197 l12 22 -22 -20 -23 -19
-20 24 c-16 20 -19 21 -13 5z m45 -292 c0 -27 -3 -34 -11 -26 -7 7 -9 23 -5
37 9 37 16 32 16 -11z"/>
<path d="M2400 2795 c0 -12 15 -15 75 -15 60 0 75 -3 75 -15 0 -12 -17 -15
-94 -15 l-93 0 -6 -37 c-7 -42 -4 -48 18 -40 8 4 15 18 15 32 0 25 1 25 76 25
l77 0 -7 -31 c-3 -17 -6 -37 -6 -44 0 -15 -117 -78 -177 -96 -24 -7 -43 -18
-43 -26 0 -18 10 -17 72 7 31 12 54 16 56 10 5 -13 169 -13 177 0 3 6 26 2 56
-10 28 -11 55 -18 60 -15 21 13 6 32 -33 42 -24 7 -64 26 -91 42 -42 28 -47
34 -41 58 14 66 10 63 90 63 l76 0 -7 -30 c-5 -24 -3 -30 10 -30 16 0 19 5 29
53 l6 27 -90 0 c-73 0 -90 3 -90 15 0 12 16 15 80 15 64 0 80 3 80 15 0 13
-26 15 -175 15 -149 0 -175 -2 -175 -15z m199 -222 c2 -2 -27 -3 -65 -3 l-68
0 34 24 35 24 30 -21 c17 -11 32 -22 34 -24z"/>
<path d="M2946 2802 c-9 -15 51 -65 70 -58 15 6 14 10 -11 36 -29 30 -49 37
-59 22z"/>
<path d="M3057 2793 c-12 -11 -8 -23 7 -23 11 0 45 -43 64 -81 3 -8 -91 -49
-112 -49 -9 0 -16 -7 -16 -15 0 -21 22 -19 95 11 59 23 66 24 87 10 43 -28
105 -45 117 -33 16 16 14 27 -6 27 -9 0 -36 9 -60 21 l-43 21 45 34 c39 31 65
61 65 78 0 8 -235 7 -243 -1z m183 -31 c0 -5 -17 -21 -37 -36 l-38 -27 -22 28
c-13 16 -23 31 -23 36 0 4 27 7 60 7 33 0 60 -4 60 -8z"/>
<path d="M2410 2690 c0 -5 23 -10 50 -10 28 0 50 5 50 10 0 6 -22 10 -50 10
-27 0 -50 -4 -50 -10z"/>
<path d="M2595 2690 c-4 -6 15 -10 49 -10 31 0 56 5 56 10 0 6 -22 10 -49 10
-28 0 -53 -4 -56 -10z"/>
<path d="M2901 2676 c-9 -11 -4 -19 23 -39 27 -22 36 -24 45 -13 11 13 7 19
-40 54 -13 10 -19 9 -28 -2z"/>
<path d="M2397 2653 c-17 -16 -3 -23 48 -23 42 0 55 3 55 15 0 11 -12 15 -48
15 -27 0 -52 -3 -55 -7z"/>
<path d="M2590 2645 c0 -12 13 -15 55 -15 42 0 55 3 55 15 0 12 -13 15 -55 15
-42 0 -55 -3 -55 -15z"/>
<path d="M3130 2600 c0 -18 -7 -20 -54 -20 -39 0 -55 -4 -60 -15 -4 -12 5 -15
50 -15 47 0 55 -3 50 -16 -3 -9 -6 -20 -6 -25 0 -5 -31 -9 -70 -9 -56 0 -70
-3 -70 -15 0 -12 14 -15 66 -15 l66 0 -7 -40 c-6 -33 -4 -40 9 -40 17 0 20 5
30 53 6 26 8 27 76 27 56 0 70 3 70 15 0 12 -14 15 -65 15 -63 0 -65 1 -65 25
0 24 3 25 55 25 42 0 55 3 55 15 0 11 -12 15 -51 15 -46 0 -50 2 -44 20 5 16
2 20 -14 20 -14 0 -21 -6 -21 -20z"/>
<path d="M2902 2496 c-42 -60 -49 -76 -38 -85 11 -9 24 4 65 64 46 67 56 95
32 95 -4 0 -31 -33 -59 -74z"/>
<path d="M2350 2500 c0 -5 25 -10 55 -10 60 0 60 -1 46 -62 -8 -33 -7 -38 9
-38 13 0 20 10 25 33 14 69 11 67 81 67 35 0 64 -4 64 -9 0 -27 -15 -41 -41
-41 -19 0 -29 -5 -29 -15 0 -9 9 -15 23 -15 45 0 67 12 73 39 3 14 8 34 11 44
4 16 -8 17 -156 17 -101 0 -161 -4 -161 -10z"/>
</g>
</svg>
